<?xml version="1.0" encoding="utf-8"?>
<!-- Generator: Adobe Illustrator 26.0.1, SVG Export Plug-In . SVG Version: 6.00 Build 0)  -->
<svg version="1.1" id="Capa_1" xmlns="http://www.w3.org/2000/svg" xmlns:xlink="http://www.w3.org/1999/xlink" x="0px" y="0px"
	 viewBox="0 0 127 128" style="enable-background:new 0 0 127 128;" xml:space="preserve">
<style type="text/css">
	.st0{fill:#FFFFFF;}
</style>
<g>
	<path class="st0" d="M64,21.2v-0.6V21.2z M92.7,93.9c7.7-7.5,12.4-17.9,12.6-29.4c0.1-11.5-4.4-22-11.9-29.7
		C85.9,27.2,75.6,22.4,64,22.2c-11.5-0.1-22.1,4.4-29.7,11.9C26.6,41.6,21.8,52,21.7,63.5l-1,0l1,0c-0.1,11.5,4.4,22,11.9,29.7
		c7.5,7.6,17.9,12.5,29.4,12.6C74.6,105.9,85.1,101.4,92.7,93.9 M63,107.3L63,107.3c-12-0.1-22.7-5.1-30.5-13.1
		C24.8,86.3,20,75.4,20.2,63.5C20.5,39.5,40.1,20.4,64,20.7c12,0.2,22.7,5.1,30.5,13.1c7.7,7.9,12.5,18.8,12.3,30.8
		c-0.1,12-5.1,22.7-13,30.5c-7.8,7.6-18.5,12.3-30.2,12.3H63"/>
	<path class="st0" d="M64.2,2.9l0-1.2L64.2,2.9z M62.8,126.3l0-1.2L62.8,126.3z M62.8,127.6C27.7,127.1-0.5,98.3-0.1,63.2l2.4,0
		c-0.2,16.9,6.5,32.2,17.4,43.4c10.9,11.2,26.2,18.2,43.1,18.5c16.9,0.2,32.3-6.4,43.5-17.4c11.2-10.9,18.2-26.1,18.4-43
		c0.2-16.8-6.5-32.2-17.4-43.4C96.3,10.2,81.1,3.1,64.2,2.9C47.3,2.7,31.9,9.4,20.7,20.3C9.5,31.2,2.5,46.4,2.3,63.2l-2.4,0
		C0.4,28.1,29.2,0,64.3,0.4C81.8,0.7,97.6,8,109,19.6c11.4,11.6,18.3,27.6,18.1,45.2c-0.2,17.5-7.5,33.4-19.1,44.7
		c-11.5,11.2-27.1,18-44.3,18C63.3,127.6,63,127.6,62.8,127.6"/>
	<polygon class="st0" points="63.5,29.7 65.7,34.4 70.7,35.2 67.1,38.8 67.9,44 63.5,41.6 59.1,44 59.9,38.8 56.3,35.2 61.3,34.4 	
		"/>
	<path class="st0" d="M25,103.9l1.1-1.4l0.2,0.2c-0.3,0.5-0.4,0.8-0.4,1c0,0.2,0.3,0.5,0.7,1l1.1,0.9c0.1,0.1,0.2,0.2,0.3,0.1
		c0.1,0,0.2-0.1,0.3-0.2l1.7-2.1l-1.2-1.1c-0.3-0.3-0.6-0.4-0.8-0.4c-0.2,0-0.5,0.2-0.8,0.5l-0.2-0.2l1.8-2.1l0.2,0.2
		c-0.2,0.4-0.4,0.7-0.4,0.9c0,0.2,0.2,0.4,0.5,0.7l1.2,1.1l1.9-2.3c0.1-0.2,0.2-0.3,0.1-0.5c-0.1-0.1-0.4-0.4-0.8-0.8
		c-0.5-0.5-1-0.7-1.3-0.8c-0.4-0.1-0.8,0-1.5,0.4l-0.2-0.2l1.7-1.3l4.1,3.7l-0.1,0.2c-0.3-0.2-0.5-0.3-0.7-0.3
		c-0.2,0-0.4,0.2-0.7,0.5l-3.5,4.2c-0.3,0.3-0.4,0.6-0.4,0.8c0,0.2,0.1,0.4,0.4,0.7l-0.1,0.2L25,103.9z"/>
	<path class="st0" d="M21.9,100.9c-0.1-0.2-0.3-0.5-0.4-0.8c-0.1-0.3-0.2-0.5-0.2-0.6L21,99.4l-0.3,0.1l-0.1-0.2l1.7-1.9l0.2,0.2
		c-0.4,0.7-0.7,1.2-0.7,1.7c0,0.5,0.2,0.9,0.4,1.1c0.2,0.2,0.4,0.3,0.7,0.4c0.3,0,0.6-0.1,0.8-0.3c0.2-0.2,0.4-0.5,0.4-0.7
		c0.1-0.3,0.1-0.6,0-1L24,97.6c-0.1-0.7-0.1-1.3,0-1.7c0.1-0.4,0.3-0.8,0.7-1.1c0.5-0.4,1-0.6,1.6-0.6c0.6,0,1.1,0.3,1.5,0.7
		c0.2,0.2,0.4,0.5,0.5,0.9c0.1,0.4,0.2,0.6,0.2,0.6l0.3,0.1l0.3-0.2l0.1,0.2l-1.7,2l-0.2-0.2c0.3-0.5,0.5-0.9,0.6-1.3
		c0.1-0.7,0-1.3-0.4-1.7c-0.2-0.3-0.5-0.4-0.8-0.4c-0.3,0-0.7,0.1-1,0.4c-0.3,0.3-0.5,0.6-0.5,1c0,0.2,0,0.7,0,1.3l0.1,1.1
		c0,0.3,0,0.6,0,0.9c-0.1,0.5-0.3,0.9-0.6,1.2c-0.4,0.4-0.9,0.6-1.4,0.6c0,0-0.1,0-0.1,0C22.7,101.5,22.2,101.3,21.9,100.9"/>
	<path class="st0" d="M19.5,95.8c-1.1-0.1-1.9-0.6-2.5-1.5c-0.2-0.3-0.4-0.7-0.5-1.1c-0.1-0.4-0.2-0.6-0.2-0.7l-0.2-0.2
		c-0.1,0-0.2,0-0.3,0l-0.1-0.2l2.2-1.6l0.1,0.2c-0.4,0.4-0.6,0.8-0.8,1.2c-0.3,0.7-0.2,1.4,0.2,2c0.4,0.6,1,0.9,1.8,0.9
		c0.8,0,1.7-0.3,2.6-1c0.9-0.6,1.4-1.3,1.7-2.1c0.2-0.8,0.2-1.5-0.2-2.1c-0.3-0.4-0.7-0.8-1.2-1c-0.3-0.1-0.6-0.2-1.1-0.3l0.1-0.3
		c0.4,0,0.8,0.1,1.2,0.2c0.7,0.2,1.2,0.6,1.5,1.2c0.6,0.9,0.8,1.9,0.5,2.9c-0.3,0.9-0.9,1.8-1.8,2.4c-0.9,0.6-1.8,0.9-2.6,0.9
		C19.7,95.9,19.6,95.8,19.5,95.8"/>
	<path class="st0" d="M13.5,87.8l0.2-0.1c0.2,0.4,0.4,0.6,0.5,0.6c0.2,0.1,0.4,0,0.8-0.2l3.5-1.7c0.6-0.3,1-0.6,1.2-0.9
		c0.4-0.5,0.5-1.2,0.2-1.9c-0.4-0.8-0.9-1.1-1.6-1.1c-0.4,0-0.9,0.2-1.6,0.5l-2.8,1.4c-0.6,0.3-0.9,0.5-1,0.7
		c-0.1,0.2-0.1,0.5,0,0.8l-0.2,0.1l-1-2.2l0.2-0.1c0.2,0.3,0.4,0.5,0.6,0.6c0.2,0,0.6-0.1,1.1-0.4l2.8-1.4c0.7-0.4,1.4-0.5,1.9-0.6
		c0.9,0,1.7,0.5,2.1,1.5c0.5,1,0.4,1.9-0.2,2.7c-0.3,0.4-0.8,0.8-1.5,1.1L15.5,89c-0.4,0.2-0.6,0.4-0.7,0.5c-0.1,0.2,0,0.4,0.1,0.8
		l-0.2,0.1L13.5,87.8z"/>
	<path class="st0" d="M9.7,77.1l1.6-0.5l0.1,0.3c-0.5,0.2-0.8,0.5-0.9,0.7c-0.1,0.2-0.1,0.6,0.1,1.2L11,80c0,0.2,0.1,0.2,0.2,0.3
		c0.1,0,0.2,0,0.3-0.1l2.5-0.8l-0.4-1.6c-0.1-0.4-0.3-0.7-0.5-0.7c-0.2-0.1-0.5-0.1-0.9,0l-0.1-0.2l2.6-0.8l0.1,0.2
		c-0.4,0.2-0.7,0.4-0.8,0.6c-0.1,0.2-0.1,0.4,0,0.9l0.5,1.6l2.8-0.9c0.2-0.1,0.3-0.2,0.3-0.3c0-0.1-0.1-0.5-0.2-1.2
		c-0.2-0.7-0.4-1.1-0.7-1.4c-0.3-0.3-0.8-0.4-1.5-0.5l-0.1-0.3l2-0.1l1.6,5.4l-0.2,0.1c-0.1-0.4-0.3-0.6-0.4-0.7
		c-0.1-0.1-0.4,0-0.8,0.1l-5.1,1.6c-0.4,0.1-0.6,0.2-0.7,0.4c-0.1,0.1-0.1,0.4,0,0.8l-0.2,0.1L9.7,77.1z"/>
	<path class="st0" d="M8.8,72.1l0.2,0c0.1,0.4,0.2,0.6,0.3,0.7c0.1,0.1,0.4,0.1,0.8,0.1l5.7-0.9c0.1,0,0.2-0.1,0.3-0.1
		c0.1,0,0.1-0.1,0.1-0.3l0-0.2c0-0.1,0-0.3-0.1-0.5c-0.1-0.9-0.3-1.5-0.5-1.8c-0.2-0.3-0.7-0.5-1.5-0.7l0-0.2l2.1,0.2l0.8,5.6
		l-0.2,0c-0.1-0.4-0.2-0.6-0.3-0.7c-0.1-0.1-0.4-0.1-0.8,0l-5.3,0.8c-0.4,0.1-0.7,0.2-0.8,0.3c-0.1,0.1-0.2,0.4-0.1,0.8l-0.2,0
		L8.8,72.1z"/>
	<path class="st0" d="M9.7,64l3.3,1.2l0-2.4L9.7,64z M15.8,67.3c0-0.3-0.1-0.5-0.3-0.6c-0.2-0.1-0.7-0.4-1.6-0.7l-5.8-2.2v-0.2
		l6.7-2.5c0.5-0.2,0.7-0.3,0.8-0.4c0.1-0.1,0.2-0.3,0.2-0.5h0.2l0,2.7h-0.2c0-0.3-0.1-0.5-0.1-0.6c0-0.1-0.2-0.1-0.3-0.1
		c0,0-0.2,0-0.3,0c-0.2,0-0.3,0.1-0.5,0.1l-1.1,0.4l0,2.8c0.8,0.3,1.3,0.5,1.4,0.5c0.2,0.1,0.3,0.1,0.4,0.1c0.2,0,0.3-0.1,0.4-0.2
		c0.1-0.1,0.1-0.3,0.1-0.5l0.2,0l0,2.1H15.8z"/>
	<path class="st0" d="M14.1,57.1l0-0.2c0.6-0.1,1-0.2,1.4-0.4c0.6-0.3,1-0.7,1.1-1.3c0.1-0.3,0-0.6-0.2-0.9
		c-0.2-0.3-0.5-0.5-0.9-0.6c-0.4-0.1-0.7,0-1.1,0.2c-0.2,0.1-0.5,0.4-1,0.8l-0.8,0.8c-0.3,0.2-0.5,0.4-0.7,0.5
		c-0.4,0.2-0.9,0.3-1.3,0.2c-0.6-0.1-1.1-0.4-1.4-0.8c-0.3-0.4-0.4-0.9-0.3-1.5c0-0.2,0.2-0.5,0.4-0.8c0.2-0.3,0.3-0.5,0.3-0.5
		c0-0.1,0-0.2,0-0.3C9.5,52.1,9.4,52,9.3,52l0-0.2l2.5,0.3l0,0.2c-0.8,0-1.4,0.2-1.7,0.5c-0.4,0.3-0.6,0.6-0.6,1
		c-0.1,0.3,0,0.5,0.1,0.8c0.1,0.3,0.4,0.4,0.7,0.5c0.3,0.1,0.6,0,0.8-0.1c0.2-0.1,0.5-0.3,0.8-0.6l0.8-0.8c0.5-0.5,0.9-0.8,1.3-1
		c0.4-0.2,0.8-0.2,1.2-0.1c0.6,0.1,1.1,0.4,1.4,0.9c0.3,0.5,0.4,1.1,0.3,1.7c-0.1,0.3-0.2,0.6-0.4,1c-0.2,0.3-0.3,0.5-0.3,0.5
		c0,0.1,0,0.2,0.1,0.3l0.3,0.1l0,0.2L14.1,57.1z"/>
	<path class="st0" d="M15,50.2l-3.5-1.3c-0.4-0.1-0.7-0.2-0.9-0.1c-0.1,0.1-0.3,0.3-0.5,0.6L10,49.4l0.9-2.8l0.2,0.1
		c-0.1,0.4-0.1,0.7,0,0.8c0.1,0.2,0.3,0.3,0.7,0.5l3.6,1.3c0.6,0.2,1.1,0.3,1.5,0.3c0.7,0,1.2-0.4,1.4-1.2c0.3-0.8,0.1-1.5-0.4-2
		c-0.3-0.3-0.8-0.6-1.5-0.8l-2.9-1.1c-0.6-0.2-1-0.3-1.2-0.2c-0.2,0.1-0.4,0.3-0.5,0.6l-0.2-0.1l0.8-2.3l0.2,0.1
		c-0.1,0.4-0.1,0.7,0.1,0.9c0.1,0.2,0.5,0.4,1.1,0.6l2.9,1.1c0.8,0.3,1.3,0.6,1.7,1c0.7,0.7,0.8,1.6,0.5,2.6c-0.4,1.1-1,1.7-1.9,1.8
		c-0.1,0-0.2,0-0.3,0C16.1,50.5,15.6,50.4,15,50.2"/>
	<path class="st0" d="M15.1,38.4c-0.3,0.2-0.5,0.5-0.7,0.9c-0.1,0.2-0.1,0.3-0.1,0.4c0,0.1,0.1,0.1,0.3,0.2l2.8,1.5
		c0.1-0.2,0.2-0.3,0.2-0.3l0.1-0.1c0.2-0.4,0.3-0.8,0.3-1.1c0-0.6-0.4-1.1-1.1-1.4c-0.3-0.2-0.6-0.3-0.9-0.3
		C15.6,38.1,15.4,38.2,15.1,38.4 M19.8,44.9c0.1-0.4,0.2-0.6,0.1-0.8c-0.1-0.2-0.3-0.3-0.8-0.6L14.5,41c-0.4-0.2-0.6-0.3-0.8-0.2
		c-0.2,0-0.4,0.2-0.5,0.5L13,41.2l1.2-2.5c0.4-0.8,0.9-1.3,1.4-1.5c0.6-0.2,1.1-0.2,1.7,0.1c0.7,0.4,1.1,0.9,1.2,1.5
		c0.1,0.6,0,1.3-0.4,2c0,0.1-0.1,0.2-0.2,0.4c-0.1,0.1-0.2,0.3-0.2,0.3l1.9,1c0.4,0.2,0.7,0.3,0.8,0.2c0.2,0,0.3-0.3,0.6-0.6
		l0.2,0.1L20,45L19.8,44.9z"/>
	<path class="st0" d="M22.4,39.7c0.2-0.3,0.3-0.6,0.2-0.8c0-0.2-0.2-0.4-0.6-0.6l-4.4-3.2c-0.3-0.3-0.6-0.4-0.8-0.4
		c-0.2,0-0.4,0.2-0.6,0.5l-0.2-0.1l3.1-4.6l1.4,1l-0.2,0.2c-0.5-0.2-0.8-0.3-1.1-0.3c-0.2,0.1-0.5,0.3-0.8,0.8l-0.8,1.2
		c-0.1,0.1-0.1,0.2-0.1,0.3c0,0.1,0.1,0.1,0.2,0.2l2.2,1.6l0.9-1.3c0.3-0.4,0.4-0.6,0.3-0.8c-0.1-0.2-0.3-0.5-0.6-0.8l0.1-0.2
		l2.3,1.6l-0.1,0.2C22.5,34.1,22.2,34,22,34c-0.2,0-0.4,0.2-0.7,0.6l-0.9,1.3l2.4,1.8c0.2,0.1,0.4,0.2,0.5,0.1
		c0.1-0.1,0.3-0.4,0.7-0.9c0.4-0.6,0.6-1.1,0.7-1.4c0-0.4-0.1-0.9-0.5-1.5l0.2-0.2l1.4,1.6l-3.2,4.6L22.4,39.7z"/>
	<path class="st0" d="M23.3,26.8c-0.3,0.1-0.6,0.3-0.9,0.6c-0.2,0.2-0.3,0.4-0.3,0.5c0,0.1,0.1,0.2,0.2,0.3l2.1,2.1
		c0.5-0.6,0.8-1,0.9-1.4c0.2-0.6,0-1.1-0.5-1.6c-0.4-0.4-0.8-0.5-1.1-0.5C23.6,26.7,23.5,26.7,23.3,26.8 M26,34.4
		c0.2-0.3,0.3-0.6,0.3-0.7c0-0.2-0.2-0.4-0.6-0.8l-3.8-3.7c-0.3-0.3-0.5-0.4-0.7-0.5c-0.2,0-0.4,0.1-0.7,0.4L20.4,29l1.9-2.1
		c0.4-0.4,0.8-0.7,1.2-0.9c0.7-0.3,1.4-0.2,2.1,0.5c0.4,0.4,0.6,0.9,0.7,1.3c0,0.5-0.1,1-0.5,1.5l3.6,0.6c0.2,0,0.4,0,0.6,0
		c0.1,0,0.3-0.1,0.5-0.2l0.2,0.2l-1.1,1.2l-4.4-0.7l-0.3,0.3l1.7,1.7c0.3,0.3,0.6,0.5,0.7,0.5c0.2,0,0.4-0.1,0.7-0.4l0.2,0.2
		l-1.9,2.1L26,34.4z"/>
	<path class="st0" d="M30.8,29.3c0.3-0.3,0.4-0.5,0.5-0.7c0-0.2-0.1-0.4-0.4-0.8l-3.4-4.2c-0.3-0.3-0.5-0.5-0.7-0.5
		c-0.2,0-0.4,0.1-0.7,0.4l-0.1-0.2l2.3-2l0.1,0.2c-0.3,0.3-0.4,0.5-0.5,0.7c0,0.2,0.1,0.4,0.4,0.8l3.5,4.2c0.3,0.4,0.5,0.5,0.7,0.5
		c0.2,0,0.4-0.1,0.7-0.4l0.1,0.2l-2.3,2L30.8,29.3z"/>
	<path class="st0" d="M32.1,18.6c-0.5,0.3-0.8,0.9-0.8,1.7c0,0.8,0.3,1.7,1,2.8c0.7,1.1,1.4,1.7,2.1,2c0.7,0.3,1.3,0.2,1.8-0.1
		c0.5-0.4,0.8-0.9,0.8-1.6c0-0.7-0.3-1.7-1-2.8c-0.7-1.1-1.4-1.8-2.1-2c-0.3-0.1-0.6-0.2-0.8-0.2C32.7,18.3,32.3,18.4,32.1,18.6
		 M33.8,25.6c-1-0.3-1.8-0.9-2.5-2c-0.7-1.1-1-2.2-0.9-3.2c0.1-1,0.6-1.7,1.3-2.2c0.8-0.5,1.6-0.7,2.5-0.4c1,0.3,1.8,0.9,2.5,2
		c0.7,1.1,1,2.2,0.9,3.2c-0.1,0.9-0.6,1.7-1.3,2.2c-0.5,0.4-1,0.5-1.6,0.5C34.5,25.8,34.2,25.7,33.8,25.6"/>
	<path class="st0" d="M38.6,14.9c-0.3,0.1-0.4,0.2-0.4,0.3c0,0.1,0,0.2,0.1,0.4l1.3,2.7c0.7-0.3,1.1-0.7,1.3-0.9
		c0.4-0.5,0.4-1.1,0.1-1.7c-0.3-0.6-0.7-1-1.3-1c0,0-0.1,0-0.1,0C39.3,14.6,39,14.7,38.6,14.9 M39.5,22.7c0.3-0.2,0.5-0.4,0.5-0.6
		c0-0.2-0.1-0.5-0.3-0.9l-2.2-4.8c-0.2-0.4-0.3-0.6-0.5-0.7c-0.2-0.1-0.4,0-0.8,0.1l-0.1-0.2l2.5-1.3c0.5-0.2,1-0.4,1.4-0.4
		c0.8,0,1.4,0.4,1.8,1.2c0.2,0.6,0.3,1.1,0.1,1.5c-0.1,0.5-0.5,0.8-0.9,1.2l3.2,1.9c0.2,0.1,0.4,0.2,0.5,0.2c0.1,0,0.3,0,0.5-0.1
		l0.1,0.2L44,20.7l-3.9-2.3l-0.4,0.2l1,2.2c0.2,0.4,0.4,0.6,0.5,0.7c0.2,0.1,0.4,0,0.8-0.1l0.1,0.2l-2.5,1.3L39.5,22.7z"/>
	<path class="st0" d="M48.6,10.9c-0.2,0-0.3,0.1-0.3,0.2c0,0.1,0,0.2,0,0.3l0.8,3.1c0.2,0,0.3,0,0.4-0.1l0.2,0
		c0.4-0.1,0.8-0.3,1-0.5c0.4-0.4,0.5-1,0.3-1.8c-0.2-0.7-0.6-1.2-1.1-1.3c-0.1,0-0.2,0-0.4,0C49.1,10.8,48.8,10.9,48.6,10.9
		 M48.2,18.8c0.4-0.1,0.6-0.3,0.6-0.5c0.1-0.2,0-0.5-0.1-1l-1.3-5.2c-0.1-0.4-0.2-0.7-0.4-0.8c-0.1-0.1-0.4-0.1-0.7-0.1l-0.1-0.2
		l2.6-0.7c0.8-0.2,1.5-0.2,2.1,0.1c0.5,0.3,0.9,0.7,1.1,1.4c0.2,0.8,0.1,1.5-0.3,2c-0.4,0.5-1,0.8-1.7,1.1c-0.1,0-0.2,0.1-0.4,0.1
		c-0.2,0-0.3,0.1-0.4,0.1l0.6,2.2c0.1,0.4,0.2,0.7,0.4,0.8c0.1,0.1,0.4,0.1,0.8,0l0.1,0.2L48.2,19L48.2,18.8z"/>
	<path class="st0" d="M56.2,9.2c-0.6,0.1-1.1,0.4-1.4,1.1c-0.4,0.7-0.4,1.7-0.3,2.9c0.2,1.3,0.5,2.2,1,2.8c0.5,0.6,1,0.8,1.6,0.7
		c0.6-0.1,1.1-0.4,1.4-1.1c0.3-0.7,0.4-1.7,0.3-3c-0.2-1.3-0.5-2.3-1-2.8c-0.4-0.5-0.9-0.7-1.4-0.7C56.4,9.1,56.3,9.2,56.2,9.2
		 M54.7,16.3c-0.7-0.7-1.2-1.7-1.3-2.9c-0.1-1.3,0.1-2.4,0.6-3.3c0.5-0.8,1.2-1.3,2.1-1.4c0.9-0.1,1.7,0.1,2.4,0.8
		c0.8,0.7,1.2,1.7,1.4,3c0.2,1.3,0,2.4-0.7,3.3c-0.5,0.8-1.2,1.2-2.1,1.3c-0.1,0-0.3,0-0.4,0C56,17.2,55.3,16.9,54.7,16.3"/>
	<path class="st0" d="M61.1,16.5v-0.2c0.4,0,0.6-0.1,0.7-0.2c0.1-0.1,0.2-0.4,0.2-0.9l0.1-5.5c0-0.4,0-0.7-0.2-0.8
		c-0.1-0.1-0.3-0.2-0.7-0.3l0-0.2l2.9,0v0.2c-0.4,0-0.6,0.1-0.8,0.2c-0.1,0.1-0.2,0.4-0.2,0.8L63,15.6c0,0.1,0,0.2,0.1,0.3
		c0,0.1,0.1,0.1,0.2,0.2l0.2,0c0.1,0,0.3,0,0.5,0c0.9,0,1.5-0.1,1.8-0.3c0.3-0.2,0.6-0.6,0.9-1.4h0.3l-0.5,2.1L61.1,16.5z"/>
	<path class="st0" d="M67.3,16.7l0-0.2c0.4,0,0.7,0,0.8-0.1c0.1-0.1,0.2-0.4,0.3-0.9L69,10c0-0.5,0-0.7-0.1-0.9
		c-0.1-0.1-0.4-0.2-0.8-0.3l0-0.2l2.9,0.3l0,0.2c-0.4,0-0.7,0-0.8,0.1c-0.1,0.1-0.2,0.4-0.3,0.8l-0.6,5.5c-0.1,0.5,0,0.8,0.1,0.9
		c0.1,0.1,0.4,0.2,0.8,0.3l0,0.2L67.3,16.7z"/>
	<path class="st0" d="M72.1,17.3l0-0.2c0.4,0.1,0.7,0,0.9-0.1c0.1-0.1,0.2-0.4,0.3-0.9l1.2-6.1L74,9.9C73.4,9.8,73,9.8,72.8,10
		c-0.3,0.1-0.5,0.5-0.7,1.2l-0.2,0L72.3,9l5.6,1.2l-0.4,2.1l-0.2,0c0-0.7,0-1.1-0.2-1.4c-0.1-0.2-0.5-0.4-1.1-0.5l-0.6-0.1l-1.2,6.2
		c-0.1,0.5-0.1,0.8,0,0.9c0.1,0.1,0.3,0.3,0.7,0.4l0,0.2L72.1,17.3z"/>
	<path class="st0" d="M76.6,18.3l0.1-0.2c0.4,0.1,0.6,0.1,0.8,0c0.1-0.1,0.3-0.3,0.4-0.7l1.7-5.2c0.1-0.4,0.2-0.7,0.1-0.9
		c-0.1-0.2-0.3-0.3-0.6-0.5l0.1-0.2l5.1,1.8l-0.5,1.7L83.6,14c0.1-0.5,0.1-0.9,0-1.1c-0.1-0.2-0.4-0.4-1-0.6l-1.3-0.5
		c-0.1-0.1-0.2-0.1-0.3,0c0,0-0.1,0.1-0.1,0.3l-0.9,2.6l1.5,0.5c0.4,0.2,0.7,0.2,0.8,0.1c0.2-0.1,0.4-0.4,0.6-0.8l0.2,0.1l-0.9,2.7
		l-0.2-0.1c0.1-0.5,0.1-0.8,0-1c-0.1-0.2-0.3-0.3-0.7-0.5l-1.5-0.5l-1,2.9c-0.1,0.2-0.1,0.4,0,0.5c0.1,0.1,0.5,0.2,1.1,0.5
		c0.7,0.2,1.2,0.3,1.5,0.2c0.4,0,0.8-0.4,1.3-0.9l0.3,0.1l-1.1,1.8L76.6,18.3z"/>
	<path class="st0" d="M85.6,22.3c-1-0.5-1.6-1.3-1.8-2.3c-0.2-1,0-2,0.5-3c0.5-1.1,1.2-1.8,2.2-2.3c0.9-0.5,1.9-0.5,2.8,0
		c0.3,0.2,0.6,0.4,0.9,0.7c0.3,0.3,0.5,0.5,0.5,0.5l0.3,0l0.3-0.2l0.2,0.1l-1.1,2.5l-0.2-0.1c0.1-0.5,0.2-1,0.1-1.4
		c-0.1-0.7-0.5-1.3-1.1-1.6c-0.6-0.3-1.3-0.3-2,0.1c-0.7,0.4-1.3,1.1-1.8,2.2c-0.5,1-0.7,1.9-0.5,2.7c0.2,0.8,0.5,1.4,1.2,1.7
		c0.5,0.3,1,0.3,1.5,0.3c0.3,0,0.7-0.1,1.1-0.3l0.1,0.3c-0.3,0.2-0.7,0.3-1.1,0.4c-0.2,0-0.4,0.1-0.6,0.1
		C86.5,22.6,86.1,22.5,85.6,22.3"/>
	<path class="st0" d="M93.3,27.2l0.1-8.2l-2.7,3.9c-0.4,0.6-0.6,1-0.5,1.2c0,0.2,0.1,0.4,0.4,0.6l-0.1,0.2l-1.9-1.4l0.1-0.2
		c0.4,0.2,0.7,0.3,0.8,0.2c0.2-0.1,0.5-0.4,0.8-0.9l3-4.4l0-0.2c0-0.3,0-0.5-0.1-0.5c-0.1-0.1-0.2-0.2-0.3-0.3l0.1-0.2l1.4,1
		l-0.1,7.2l2.3-3.4c0.4-0.5,0.5-1,0.5-1.2c0-0.2-0.2-0.4-0.4-0.6l0.1-0.2l2,1.4l-0.1,0.2c-0.4-0.2-0.6-0.2-0.8-0.2
		c-0.2,0.1-0.5,0.4-0.9,0.9l-3.6,5.3L93.3,27.2z"/>
	<path class="st0" d="M94.5,28l0.1-0.2c0.3,0.2,0.6,0.4,0.7,0.4c0.2,0,0.4-0.2,0.7-0.5l3.5-4.1c0.3-0.3,0.4-0.6,0.4-0.8
		c0-0.2-0.2-0.4-0.4-0.7l0.1-0.2l2.2,2l-0.2,0.2c-0.3-0.3-0.6-0.4-0.7-0.4c-0.2,0-0.4,0.2-0.7,0.5l-3.5,4.1
		c-0.3,0.4-0.4,0.6-0.4,0.8c0,0.2,0.2,0.4,0.4,0.7l-0.1,0.2L94.5,28z"/>
	<path class="st0" d="M101,34.2c-0.7-0.1-1.2-0.5-1.7-1c-0.7-0.8-1-1.8-0.8-2.8c0.2-1,0.7-1.9,1.5-2.6c0.9-0.8,1.8-1.2,2.8-1.3
		c1-0.1,1.9,0.3,2.6,1.1c0.2,0.3,0.5,0.6,0.6,1c0.2,0.4,0.3,0.6,0.3,0.6l0.3,0.1c0.1,0,0.2,0,0.3-0.1l0.1,0.2l-1.9,1.9l-0.2-0.2
		c0.3-0.5,0.5-0.9,0.6-1.3c0.2-0.8,0-1.4-0.4-1.9c-0.5-0.5-1.1-0.8-1.9-0.6c-0.8,0.1-1.6,0.6-2.5,1.4c-0.8,0.7-1.3,1.5-1.4,2.3
		c-0.2,0.8,0,1.5,0.5,2c0.4,0.4,0.8,0.7,1.3,0.8c0.3,0.1,0.7,0.1,1.1,0.1l0,0.3c-0.2,0-0.3,0-0.5,0C101.5,34.2,101.3,34.2,101,34.2"
		/>
	<path class="st0" d="M105.3,35.5l1.3,2l2.1-2.9L105.3,35.5z M104.1,39.3l0.2-0.1c0.2,0.2,0.3,0.4,0.4,0.4c0.1,0,0.2,0,0.3-0.1
		l0.2-0.2c0.1-0.1,0.2-0.2,0.3-0.4l0.7-1l-1.5-2.3c-0.8,0.2-1.3,0.3-1.4,0.4c-0.2,0.1-0.3,0.1-0.4,0.2c-0.2,0.1-0.2,0.3-0.2,0.4
		c0,0.1,0.1,0.2,0.2,0.5l-0.2,0.1l-1.1-1.7l0.2-0.1c0.2,0.2,0.4,0.3,0.6,0.3c0.2,0,0.8-0.1,1.7-0.3l6-1.5l0.1,0.2l-4.2,6
		c-0.3,0.4-0.4,0.7-0.5,0.8c0,0.1,0,0.3,0.1,0.6l-0.2,0.1L104.1,39.3z"/>
	<path class="st0" d="M113.8,42.9l-5.6,2.3c-0.2,0.1-0.3,0.2-0.3,0.3c0,0.1,0,0.3,0.1,0.5c0.3,0.8,0.7,1.3,1.2,1.7
		c0.8,0.5,1.9,0.6,3.1,0c1.1-0.5,1.9-1.1,2.2-2c0.3-0.7,0.3-1.5-0.1-2.4c-0.1-0.2-0.2-0.4-0.3-0.4c0,0-0.1,0-0.1,0
		C114,42.9,113.9,42.9,113.8,42.9 M109.5,48.8c-0.3-0.2-0.6-0.4-0.8-0.6c-0.4-0.4-0.7-1-1-1.7l-1-2.7l0.2-0.1
		c0.2,0.3,0.4,0.5,0.5,0.6c0.1,0.1,0.4,0,0.8-0.1l5-2c0.4-0.2,0.6-0.3,0.7-0.5c0.1-0.1,0.1-0.4,0-0.8l0.2-0.1l1,2.6
		c0.3,0.9,0.5,1.7,0.4,2.5c-0.2,1.3-1,2.3-2.6,3c-0.5,0.2-1.1,0.3-1.7,0.3C110.5,49.1,110,49,109.5,48.8"/>
	<path class="st0" d="M110.5,56.4l-1.2-5.5l0.2-0.1c0.1,0.4,0.3,0.6,0.4,0.7c0.1,0.1,0.4,0.1,0.9,0l5.2-1.2c0.4-0.1,0.7-0.2,0.8-0.4
		c0.1-0.1,0.1-0.4,0.1-0.8l0.2-0.1l1.2,5.4l-1.7,0.4l0-0.3c0.5-0.2,0.8-0.4,0.9-0.6c0.1-0.2,0.1-0.6,0-1.2l-0.3-1.4
		c0-0.1-0.1-0.2-0.1-0.3c-0.1,0-0.2,0-0.3,0l-2.6,0.6l0.3,1.6c0.1,0.4,0.2,0.7,0.4,0.8c0.2,0.1,0.5,0.1,0.9,0.1l0.1,0.2l-2.7,0.6
		l-0.1-0.2c0.4-0.2,0.7-0.4,0.8-0.5c0.1-0.2,0.1-0.4,0-0.9l-0.3-1.6l-2.9,0.7c-0.2,0.1-0.4,0.2-0.4,0.3c0,0.1,0.1,0.5,0.2,1.2
		c0.2,0.7,0.3,1.2,0.6,1.5c0.2,0.3,0.7,0.5,1.4,0.6l0.1,0.3L110.5,56.4z"/>
	<path class="st0" d="M111.1,62.8l-0.4-5.6l0.2,0c0.1,0.4,0.2,0.6,0.3,0.7c0.1,0.1,0.4,0.1,0.8,0.1l5.3-0.4c0.4,0,0.7-0.1,0.8-0.2
		c0.1-0.1,0.2-0.4,0.2-0.8l0.2,0l0.2,2.9l-0.2,0c-0.1-0.4-0.1-0.6-0.3-0.7c-0.1-0.1-0.4-0.2-0.8-0.1l-5.7,0.5c-0.1,0-0.2,0-0.3,0.1
		c-0.1,0-0.1,0.1-0.1,0.3v0.2c0,0.1,0,0.2,0,0.5c0.1,0.9,0.2,1.6,0.4,1.9c0.2,0.3,0.7,0.6,1.4,0.8l0,0.3L111.1,62.8z"/>
	<path class="st0" d="M110.5,71.5l0.6-5.6l0.2,0c0,0.4,0.1,0.6,0.1,0.8c0.1,0.1,0.4,0.2,0.8,0.3l5.3,0.6c0.4,0,0.7,0,0.8-0.1
		c0.1-0.1,0.3-0.4,0.3-0.7l0.2,0l-0.3,3l-0.2,0c0-0.4,0-0.6-0.1-0.8c-0.1-0.1-0.3-0.2-0.7-0.3l-5.7-0.6c-0.1,0-0.2,0-0.3,0
		c-0.1,0-0.1,0.1-0.2,0.2l0,0.3c0,0.1,0,0.2,0,0.5c-0.1,1-0.1,1.6,0.1,1.9c0.1,0.3,0.6,0.7,1.2,1.1l0,0.3L110.5,71.5z"/>
	<path class="st0" d="M117.2,77c0-0.4,0-0.7-0.1-0.9c-0.1-0.2-0.4-0.3-0.8-0.4l-5.2-1.2c-0.4-0.1-0.7-0.1-0.9,0
		c-0.1,0.1-0.3,0.3-0.4,0.7l-0.2,0l0.6-3l0.2,0c0,0.4,0,0.7,0,0.9c0.1,0.1,0.4,0.3,0.8,0.4l5.2,1.2c0.4,0.1,0.7,0.1,0.9,0
		c0.1-0.1,0.3-0.3,0.4-0.7l0.2,0l-0.6,3L117.2,77z"/>
	<path class="st0" d="M113.4,83.3l0.1-0.2c0.6,0.1,1.1,0.1,1.3,0c0.2-0.1,0.4-0.5,0.6-1l0.2-0.5l-5.8-2c-0.4-0.1-0.7-0.2-0.9-0.1
		c-0.2,0.1-0.3,0.3-0.5,0.7l-0.2-0.1l0.9-2.9l0.2,0.1c-0.1,0.4-0.1,0.7,0,0.9c0.1,0.2,0.4,0.3,0.9,0.5l5.7,1.9l0.2-0.6
		c0.2-0.6,0.2-1,0.1-1.2c-0.1-0.3-0.5-0.5-1-0.8l0.1-0.3l1.9,0.7l-1.8,5.6L113.4,83.3z"/>
	<path class="st0" d="M108,83.9c-0.7,0.1-1.2,0.4-1.5,1c-0.3,0.5-0.2,1.2,0.1,1.8c0.3,0.7,1.1,1.3,2.2,1.9c1.2,0.6,2.1,0.9,2.8,0.7
		c0.7-0.1,1.2-0.5,1.5-1c0.3-0.6,0.2-1.2-0.1-1.8c-0.3-0.7-1.1-1.3-2.2-1.9c-1-0.5-1.8-0.7-2.4-0.7C108.2,83.9,108.1,83.9,108,83.9
		 M108.3,89.7c-1.2-0.6-1.9-1.4-2.3-2.4c-0.3-0.9-0.3-1.7,0.1-2.6c0.4-0.9,1.1-1.4,2.1-1.7c1-0.2,2-0.1,3.1,0.5
		c1.1,0.6,1.9,1.4,2.3,2.4c0.3,0.9,0.3,1.8-0.1,2.6c-0.4,0.9-1.1,1.4-2,1.6c-0.3,0.1-0.6,0.1-0.9,0.1
		C109.8,90.3,109.1,90.1,108.3,89.7"/>
	<path class="st0" d="M106,93.8c-0.1,0.6,0.1,1.1,0.7,1.6c0.6,0.4,1.1,0.5,1.6,0.2c0.3-0.1,0.5-0.4,0.8-0.7c0.2-0.2,0.3-0.4,0.3-0.5
		c0-0.1-0.1-0.2-0.2-0.3l-2.4-1.8C106.3,93,106,93.5,106,93.8 M106,96.3c-0.5-0.4-0.8-0.8-0.8-1.2c-0.1-0.5,0-1,0.3-1.5l-3.7-0.1
		c-0.2,0-0.4,0-0.5,0.1c-0.2,0.1-0.3,0.2-0.4,0.3l-0.2-0.1l1-1.4l4.4,0.1l0.3-0.4l-1.9-1.4c-0.4-0.3-0.6-0.4-0.8-0.4
		c-0.2,0-0.4,0.2-0.6,0.5l-0.2-0.1l1.6-2.4l0.2,0.1c-0.2,0.3-0.3,0.6-0.2,0.8c0.1,0.2,0.3,0.4,0.7,0.7l4.2,3.1
		c0.3,0.2,0.6,0.4,0.8,0.3c0.2,0,0.4-0.2,0.6-0.5l0.2,0.1l-1.6,2.4c-0.3,0.5-0.7,0.8-1.1,1.1c-0.3,0.2-0.6,0.3-0.9,0.3
		C106.9,96.8,106.5,96.6,106,96.3"/>
	<path class="st0" d="M99.6,99.5l3.2,1.5l-1.5-3.2L99.6,99.5z M97.1,99.5c-0.5-0.2-0.7-0.3-0.9-0.3c-0.2,0-0.3,0.1-0.5,0.2l-0.2-0.2
		l1.8-1.9l0.1,0.2c-0.2,0.2-0.3,0.4-0.3,0.5c0,0.1,0,0.2,0.1,0.3c0,0,0.1,0.1,0.2,0.2c0.1,0.1,0.3,0.1,0.4,0.2l1.1,0.5l1.9-2
		c-0.4-0.7-0.6-1.2-0.7-1.4c-0.1-0.2-0.2-0.3-0.2-0.4c-0.1-0.1-0.3-0.2-0.4-0.1c-0.1,0-0.2,0.1-0.4,0.3l-0.1-0.2l1.4-1.5l0.2,0.2
		c-0.2,0.2-0.2,0.4-0.2,0.7c0,0.2,0.3,0.8,0.7,1.6l2.7,5.8l-0.2,0.2L97.1,99.5z"/>
	<path class="st0" d="M97.7,107.5c0.3-0.2,0.4-0.5,0.5-0.6c0-0.2-0.1-0.4-0.3-0.8l-3.5-4.7l-0.2-0.2l-0.3,0.1l-0.2,0.1
		c-0.1,0-0.2,0.2-0.4,0.3c-0.7,0.6-1.2,1-1.3,1.4c-0.2,0.3-0.1,0.9,0.1,1.7l-0.2,0.2l-0.9-2l4.4-3.4l0.1,0.2
		c-0.3,0.3-0.4,0.5-0.4,0.6c0,0.2,0.1,0.4,0.4,0.8l3.2,4.4c0.2,0.3,0.5,0.5,0.6,0.6c0.2,0,0.4-0.1,0.7-0.3l0.1,0.2l-2.3,1.8
		L97.7,107.5z"/>
	<path class="st0" d="M37.8,116.5L38,116c0.4,0.1,0.7,0.2,1,0.1c0.3-0.1,0.6-0.4,0.8-0.8l3.2-8.5c0.2-0.5,0.2-0.9,0-1.2
		c-0.1-0.2-0.4-0.3-0.8-0.6l0.2-0.5l8.3,3.4l-1.3,3.5l-0.4-0.2c0.2-1.2,0.2-2.1-0.1-2.7c-0.3-0.6-1-1.1-2.2-1.6
		c-0.4-0.2-0.7-0.2-0.9-0.2c-0.2,0.1-0.3,0.3-0.4,0.6l-1.5,4.1c0.8,0.3,1.5,0.4,1.9,0.1c0.4-0.2,0.9-0.8,1.4-1.7l0.4,0.1l-2.2,5.9
		l-0.4-0.1c0.3-1,0.3-1.8,0.1-2.4c-0.2-0.5-0.7-1-1.5-1.3l-1.6,4.3c-0.1,0.4-0.2,0.7,0,0.9c0.1,0.2,0.4,0.4,0.9,0.6
		c0.9,0.4,1.8,0.5,2.5,0.3c0.8-0.2,1.6-0.8,2.5-1.8l0.4,0.2l-2,3.4L37.8,116.5z"/>
	<path class="st0" d="M52.6,121.6c-0.3,0-0.6-0.1-0.9-0.3c-0.3-0.1-0.6-0.3-0.9-0.5l-0.3-0.2l-0.2-0.1l-0.2-0.1
		c-0.1,0-0.2,0-0.3,0.1c-0.1,0.1-0.2,0.2-0.2,0.4l-0.4-0.1l0.8-4.6l0.4,0.1c0,1.4,0.2,2.5,0.6,3.3c0.4,0.7,1,1.2,1.7,1.3
		c0.7,0.1,1.2,0,1.6-0.4c0.4-0.4,0.6-0.8,0.7-1.3c0.1-0.5,0-1-0.2-1.4c-0.2-0.3-0.5-0.7-1-1.1l-0.9-0.8c-0.8-0.8-1.4-1.5-1.7-2.1
		c-0.3-0.7-0.4-1.4-0.2-2.3c0.2-0.9,0.6-1.7,1.3-2.4c0.7-0.7,1.5-0.9,2.6-0.7c0.5,0.1,1.1,0.3,1.5,0.6c0.5,0.3,0.7,0.5,0.8,0.5
		c0.2,0,0.3,0,0.4-0.1c0.1-0.1,0.2-0.2,0.2-0.4l0.5,0.1l-0.7,4l-0.4-0.1c0-1-0.2-1.9-0.6-2.6c-0.4-0.8-0.9-1.2-1.6-1.4
		c-0.5-0.1-0.9,0-1.3,0.3c-0.4,0.3-0.6,0.7-0.7,1.2c-0.1,0.6,0,1,0.2,1.4c0.2,0.4,0.7,0.9,1.6,1.7l1,0.9c0.4,0.4,0.8,0.8,1,1.2
		c0.4,0.8,0.5,1.7,0.4,2.7c-0.2,0.9-0.6,1.8-1.4,2.5c-0.6,0.5-1.2,0.8-2.1,0.8C53.2,121.7,52.9,121.7,52.6,121.6"/>
	<path class="st0" d="M63,110.5c-0.1,0.1-0.2,0.3-0.2,0.5l-0.1,5.1c0.9,0,1.5-0.1,1.8-0.4c0.5-0.4,0.7-1.2,0.8-2.5
		c0-0.9-0.1-1.6-0.3-2.1c-0.2-0.5-0.7-0.8-1.3-0.8C63.4,110.4,63.1,110.4,63,110.5 M58.8,122.4l0-0.5c0.5,0,0.9-0.2,1-0.4
		c0.2-0.2,0.3-0.7,0.3-1.3l0.1-8.4c0-0.7-0.1-1.1-0.3-1.3c-0.2-0.2-0.5-0.3-1-0.4l0-0.5l5,0.1c1.3,0,2.3,0.3,3,0.8
		c0.7,0.5,1,1.4,1,2.7c0,0.6-0.2,1.2-0.4,1.7c-0.3,0.5-0.7,1-1.3,1.3c-0.5,0.2-0.9,0.4-1.4,0.4c-0.5,0-1.2,0-2.1,0l0,3.6
		c0,0.7,0.1,1.1,0.3,1.4c0.2,0.2,0.5,0.3,1.1,0.4l0,0.5L58.8,122.4z"/>
	<path class="st0" d="M73.3,109.2c-1.1,0.2-1.8,1.2-1.9,3c-0.1,0.9,0,2.1,0.3,3.5c0.3,1.4,0.6,2.6,1,3.4c0.7,1.6,1.7,2.2,2.8,2
		c1.1-0.2,1.8-1.2,1.9-3c0.1-0.9,0-2.1-0.3-3.6c-0.4-2-0.9-3.4-1.6-4.3c-0.6-0.8-1.2-1.2-1.9-1.2C73.6,109.1,73.5,109.2,73.3,109.2
		 M71.3,120.6c-1.2-1.1-1.9-2.5-2.3-4.2c-0.4-1.9-0.2-3.6,0.6-5.1c0.8-1.5,1.9-2.4,3.6-2.7c1.5-0.3,2.9,0.1,4.2,1.1
		c1.3,1,2.1,2.5,2.5,4.5c0.4,1.9,0.1,3.6-0.7,5.1c-0.8,1.4-2,2.3-3.5,2.6c-0.4,0.1-0.7,0.1-1.1,0.1
		C73.4,121.9,72.3,121.4,71.3,120.6"/>
	<path class="st0" d="M83.3,119c0.4-0.2,0.6-0.4,0.7-0.5c0.2-0.3,0.2-0.7,0-1.2l-3.5-8.4c-0.2-0.5-0.5-0.8-0.8-0.8
		c-0.2,0-0.5,0-0.9,0.2l-0.2-0.4l4.9-2.2l0.2,0.4c-0.6,0.3-0.9,0.6-1,0.8c-0.1,0.3,0,0.7,0.2,1.4l3.4,8.2c0.1,0.4,0.3,0.6,0.6,0.7
		c0.2,0,0.6,0,1-0.2c0.9-0.4,1.5-0.9,1.9-1.7c0.4-0.7,0.5-1.8,0.4-3.4l0.4-0.2l1.1,4.2l-8.2,3.7L83.3,119z"/>
	<polygon class="st0" points="84.8,9.7 82.9,11.1 82.1,10.9 83.6,9.4 	"/>
	<path class="st0" d="M48.6,88.5c0,0,2.2,0.2,0.4,2.6l1.3,0.3c0,0,0-3.1,2.2-2.7C52.4,88.7,49,88.5,48.6,88.5"/>
	<path class="st0" d="M67.1,89.4c-0.1,0,2.5-0.1,1.6,3.7l1.5,0.2c0,0-0.8-3.6,1.7-3.9C71.9,89.5,68.4,89.3,67.1,89.4"/>
	<path class="st0" d="M73.6,89.1c0,0,1.4,0.8,1.3,3.6c0,0,0-0.3,1-0.3c0,0-0.2-3-1.2-3.4C74,88.7,74.3,89,73.6,89.1"/>
	<path class="st0" d="M81.1,91.5c0,0,1.2-0.4,1.5-0.6c0,0-1.9-2.7,0.5-3.3c0,0-3.3,0.8-4.8,1C78.4,88.7,81.3,88,81.1,91.5"/>
	<path class="st0" d="M41,91.4c0,0-0.1-2.6,1.9-2.7c0,0-2.3-0.2-2.7-0.5c0,0,0.6,0.5-0.5,2.8L41,91.4z"/>
	<path class="st0" d="M37,86.9c0,0,1.6,1,2.2,1c0,0-1.2-0.2-1.8,2.6l-1.3-0.9C36.1,89.6,38.1,87.9,37,86.9"/>
	<path class="st0" d="M70.5,93.6c-1.9,0-3.5-0.2-3.9-0.3c-1.3-0.1-2.3-0.6-3-1.5c-1-1.3-0.7-3.1-0.7-3.1c0.1-1.1,0.1-2.5,0.1-3.3
		c-2.3,0.7-5.2,0.9-6.3,0.9c-0.5,1.6-1.2,3.4-1.3,3.5c-0.9,3.3-8.3,1.7-10.2,1.3c-1.2,1.5-2.6,1.2-2.7,1.2c-3.5-0.3-7.7-2.5-7.9-2.6
		c-0.8-0.4-1.3-0.9-1.4-1.5c-0.2-1.1,0.9-2.1,1.1-2.2c2.1-2.6,2.9-5.9,3.4-8.4l0-0.1c-0.4-0.3-1.2-1-2-1.6c-0.8,0-3.6-0.4-5.3-3.5
		c-0.2-0.3-0.6-1.2-0.1-1.7c0.2-0.2,0.5-0.4,1.1-0.2c0.1,0,0.1,0.1,0.2,0.1c0.3,0.3,0.9,0.6,1.4,0.8c-0.2-0.9,0.2-1.7,0.5-2
		c0.5-0.5,1.1-0.8,1.6-0.8c0.2,0,0.4,0.1,0.6,0.1c1.6-9.4,8.8-14.3,9.1-14.5c7.4-5.7,13.6-3.1,13.9-2.9c2.7,0.9,7.1,3,7.3,3.1
		c3.6,1.8,6.9,5.9,7,6.1c0.5,0.6,0.9,1.2,1.4,1.9c1.5,2,3.3,4.5,4.2,4.6c0.5,0.1,1.5-0.8,2-1.5c1.6-3.6-1.7-6.6-1.9-6.7
		c-2.8-2.3-4.5-5.1-4.5-5.2c-1.6-2.9-2-5.5-1.1-7.9c1.4-3.7,5.5-5.3,5.6-5.3c2-0.6,4-0.7,6.2-0.2c0.3,0.1,0.5,0.4,0.4,0.6
		c-0.1,0.3-0.3,0.5-0.6,0.4c-2-0.5-3.9-0.4-5.6,0.2c0,0-3.8,1.4-5,4.7c-0.7,2-0.4,4.4,1.1,7c0,0,1.6,2.7,4.3,5c0.1,0,4.1,3.6,2.1,8
		c0,0,0,0.1-0.1,0.1c-0.3,0.4-1.9,2.2-3.1,2c-1.4-0.2-3.1-2.4-5-5c-0.5-0.6-0.9-1.3-1.4-1.9c0,0-3.3-4.1-6.7-5.8
		c0,0-4.5-2.2-7.2-3.1c-0.3-0.1-6-2.5-12.9,2.8c-0.1,0.1-7.6,5.2-8.8,14.7c0,0.2-0.2,0.4-0.4,0.4c-0.2,0.1-0.4,0-0.6-0.2
		c0,0-0.3-0.3-0.6-0.4c-0.3-0.1-0.5,0.1-0.8,0.4c-0.1,0.1-0.6,0.7,0.1,1.6c0.1,0.2,0.1,0.4,0,0.6c-0.1,0.2-0.3,0.3-0.5,0.3l-0.4,0
		c-0.8,0-1.7-0.6-2.2-0.9c0,0.1,0.1,0.2,0.1,0.2c1.7,3,4.6,3,4.6,3c0.1,0,0.2,0,0.3,0.1c2.7,2.1,2.7,2.2,2.6,2.5l-0.1,0.4
		c-0.5,2.4-1.3,6-3.7,8.9c-0.3,0.2-0.8,0.8-0.8,1.3c0,0.3,0.4,0.6,0.8,0.7c0.1,0,4.2,2.2,7.5,2.5c0.1,0,1.1,0.1,1.9-1.1
		c0.1-0.2,0.4-0.3,0.6-0.2c2.2,0.6,8.7,1.8,9.3-0.5c0-0.1,0.9-2.2,1.4-3.8c0.1-0.2,0.3-0.4,0.5-0.4c0,0,4.5-0.1,7.1-1.1
		c0.2-0.1,0.4,0,0.5,0.1c0.1,0.1,0.2,0.3,0.2,0.4c0,0.1,0,2.4-0.1,4.3c0,0.1-0.2,1.4,0.5,2.4c0.5,0.6,1.2,1,2.2,1.1
		c1.9,0.2,7,0.6,8.4-0.7c0.1-0.1,0.3-0.2,0.5-0.1c0,0,2.4,0.7,6-0.8c1.6-0.5,3.8-1.6,4-2.5c0.1-0.5-0.5-1-1-1.4
		c-0.1-0.1-0.2-0.2-0.2-0.4c-0.1-1.4-0.8-5.3-2.7-6.2c-0.2-0.1-0.3-0.3-0.3-0.5c0-0.2,0.1-0.4,0.3-0.5c0.1,0,1.9-1.2,1.1-3.1
		c-0.1-0.1-0.1-0.3,0-0.5c0.1-0.1,0.2-0.2,0.4-0.3c0,0,2.9-0.6,3.7-2.3c0.4-0.8,0.3-1.8-0.4-3c-0.1-0.2-0.1-0.4,0.1-0.6
		c0,0,1.2-1.5,1-5.4c0,0-0.4-5,4.3-6.9c0.8-0.2,2.7-1.1,3.3-2.3c0.2-0.5,0.2-1-0.1-1.6c-0.1-0.2-0.1-0.5,0.1-0.7
		c0,0,0.9-0.8,0.8-2.1c-0.1-1.7-1.5-3.6-4.1-5.7c-0.2-0.2-0.3-0.5-0.1-0.7c0.2-0.2,0.5-0.3,0.7-0.1c3,2.2,4.5,4.4,4.6,6.5
		c0,1.3-0.5,2.2-0.9,2.6c0.3,0.8,0.3,1.5,0,2.2c-0.8,1.9-3.8,2.8-3.9,2.9c-3.9,1.6-3.6,5.7-3.6,5.9c0.1,3.3-0.7,5.1-1.1,5.8
		c0.7,1.3,0.8,2.6,0.3,3.6c-0.8,1.7-2.8,2.5-3.9,2.8c0.4,1.5-0.3,2.7-1.1,3.4c2,1.6,2.5,5.3,2.6,6.4c1,0.7,1.4,1.4,1.3,2.3
		c-0.3,2-4.2,3.3-4.7,3.4c-3.3,1.3-5.6,1-6.4,0.9C74.5,93.4,72.4,93.6,70.5,93.6"/>
	<path class="st0" d="M55.3,80.2c-5.4,0-9.4-1.5-12.3-3.2c-5.1-3-7.3-6.9-7.4-7c-0.1-0.3-0.1-0.6,0.2-0.7c0.3-0.1,0.6-0.1,0.7,0.2
		c0.3,0.6,8.8,15.2,30.5,7.4c0.3-0.1,8.8-3.4,16.2-1.5c0.3,0.1,0.5,0.4,0.4,0.6c-0.1,0.3-0.4,0.5-0.6,0.4
		c-7.1-1.8-15.5,1.5-15.6,1.5C62.9,79.6,58.8,80.2,55.3,80.2"/>
	<path class="st0" d="M56.1,82.9c-7.3,0-17.7-1.7-22.6-10.6c-0.1-0.3,0-0.6,0.2-0.7c0.3-0.1,0.6-0.1,0.7,0.2
		c7.6,13.7,29.1,9.4,29.3,9.4c7.6-2.6,13.6-2.3,13.9-2.3c3.6,0.5,4.5,0.3,4.5,0.3c0.3-0.1,0.6,0.1,0.7,0.4c0.1,0.3-0.1,0.6-0.3,0.7
		c-0.2,0.1-1.2,0.3-5-0.2c0,0-6.1-0.3-13.5,2.3C63.8,82.3,60.5,82.9,56.1,82.9"/>
	<path class="st0" d="M63.6,85.3L63.6,85.3c-0.3,0-0.6-0.3-0.5-0.6c0.1-1.8-0.1-2.7-0.1-2.8c-0.1-0.3,0.1-0.6,0.4-0.7
		c0.3-0.1,0.6,0.1,0.7,0.4c0,0,0.3,1.1,0.2,3.1C64.1,85.1,63.9,85.3,63.6,85.3"/>
	<path class="st0" d="M48.5,85.4c-0.1,0-0.1,0-0.2,0c-0.3-0.1-0.4-0.4-0.3-0.7c0.6-1.5,0.7-2.7,0.7-2.7c0-0.3,0.3-0.5,0.6-0.5
		c0.3,0,0.5,0.3,0.5,0.6c0,0.1-0.1,1.3-0.8,3C48.9,85.3,48.7,85.4,48.5,85.4"/>
	<path class="st0" d="M74.5,89.4L74.5,89.4c-0.3,0-0.6-0.3-0.5-0.6c0.5-6.2-1.4-8.6-1.4-8.6c-0.2-0.2-0.1-0.6,0.1-0.8
		c0.2-0.2,0.6-0.1,0.7,0.1c0.1,0.1,2.2,2.7,1.6,9.4C75,89.2,74.8,89.4,74.5,89.4"/>
	<path class="st0" d="M79,75.9c-0.2,0-0.4-0.1-0.5-0.4c-0.1-0.3,0.1-0.6,0.4-0.7c2.9-0.9,3.9-3.2,3.9-3.3c0.1-0.2,0.3-0.3,0.5-0.3
		c2.2-0.1,3.1-1.7,3.1-1.7c0.1-0.3,0.5-0.3,0.7-0.2c0.3,0.1,0.4,0.5,0.2,0.7c0,0.1-1.1,2-3.7,2.3C83.2,73,82,75,79.2,75.9
		C79.1,75.9,79.1,75.9,79,75.9"/>
	<path class="st0" d="M91.2,54.4c-1.9,0-4.2-0.4-6.5-2c-0.2-0.2-0.3-0.5-0.2-0.7c0.2-0.2,0.5-0.3,0.7-0.2c5,3.2,9.8,1.1,9.8,1.1
		c0.3-0.1,0.6,0,0.7,0.3c0.1,0.3,0,0.6-0.3,0.7C95.4,53.6,93.7,54.4,91.2,54.4"/>
	<path class="st0" d="M88.1,38.6c-1.7,0.1-3,2.7-2.8,5.8c0.1,3,1.6,5.5,3.2,5.5v0.5l0.1-0.5c1.6-0.1,2.9-2.7,2.8-5.8
		C91.2,41.1,89.7,38.6,88.1,38.6 M88.5,50.9c-2.2,0-4.1-2.9-4.2-6.5c-0.2-3.8,1.5-6.8,3.8-6.9h0c2.3,0,4.2,2.9,4.4,6.5
		c0.2,3.8-1.5,6.8-3.8,6.9C88.6,50.9,88.5,50.9,88.5,50.9"/>
	<path class="st0" d="M87.3,43.1c-0.8,0.1-1.5,1.4-1.4,3.2c0.1,1.8,1,3,1.7,3v0.5l0-0.5c0.7-0.1,1.5-1.4,1.3-3.2
		C88.9,44.3,88,43.1,87.3,43.1 M87.6,50.4c-1.4,0-2.6-1.7-2.8-4c-0.2-2.3,0.9-4.2,2.3-4.3h0c1.5,0,2.7,1.7,2.9,4
		c0.2,2.3-0.9,4.2-2.3,4.3C87.7,50.4,87.6,50.4,87.6,50.4"/>
	<path class="st0" d="M80.1,48.3c-0.1,0-0.1,0-0.1,0c-0.6-0.1-1-0.4-1.3-0.9c-0.7-1.2-0.1-3,0-3.2c1-2.9,6-1.6,6.2-1.6
		c0.3,0.1,0.5,0.4,0.4,0.7c-0.1,0.3-0.4,0.5-0.7,0.4c0,0-4.3-1-4.9,0.9c-0.1,0.4-0.5,1.7-0.1,2.4c0.1,0.2,0.3,0.3,0.5,0.3
		c0.1,0,0.4-0.2,0.4-0.9c0-0.2,0.4-1.2,1.5-1.7c0.9-0.3,1.9-0.2,3.1,0.5c0.3,0.1,0.3,0.5,0.2,0.7c-0.1,0.3-0.5,0.3-0.7,0.2
		c-0.9-0.5-1.6-0.7-2.2-0.4c-0.6,0.2-0.9,0.9-0.9,0.9c0,0.6-0.3,1.1-0.6,1.4C80.6,48.2,80.2,48.3,80.1,48.3"/>
	<path class="st0" d="M54.9,57.1c-5,0-8.8-2.7-8.9-2.7c-0.2-0.2-0.3-0.5-0.1-0.7c0.2-0.2,0.5-0.3,0.7-0.1c0.3,0.2,8.1,5.7,15.9-0.1
		c0.2-0.2,0.6-0.1,0.7,0.1c0.2,0.2,0.1,0.6-0.1,0.7C60.4,56.4,57.5,57.1,54.9,57.1"/>
	<path class="st0" d="M68.8,65.2c-2.4,0-3.9-1.2-3.9-1.2c-1.7-1.1-2.6-2.5-2.6-4c0-2.9,3.3-5.1,3.4-5.2c0.2-0.2,0.6-0.1,0.7,0.1
		c0.2,0.2,0.1,0.6-0.1,0.7c0,0-2.9,2-2.9,4.3c0,1.1,0.7,2.2,2.2,3.1c0.2,0.1,3.4,2.5,7.7-0.6c0.2-0.2,0.6-0.1,0.7,0.1
		c0.2,0.2,0.1,0.6-0.1,0.7C72,64.7,70.3,65.2,68.8,65.2"/>
	<path class="st0" d="M69.5,77c-0.2,0-0.3-0.1-0.4-0.2c-2.4-3.1-3.1-5.8-2.2-7.8c1.7-3.7,8.1-4.2,8.3-4.2c0.3,0,0.5,0.2,0.6,0.5
		c0,0.3-0.2,0.5-0.5,0.6c-0.1,0-6,0.4-7.4,3.6c-0.8,1.7-0.1,4,2,6.8c0.2,0.2,0.1,0.6-0.1,0.7C69.7,76.9,69.6,77,69.5,77"/>
	<path class="st0" d="M53.4,79.9c-0.3,0-0.5-0.2-0.5-0.5c0-0.1-0.1-3.6,2-5.9c1.1-1.2,2.7-1.9,4.6-2c0,0,5.6-0.8,8.1,5.6
		c0.1,0.3,0,0.6-0.3,0.7c-0.3,0.1-0.6,0-0.7-0.3c-2.2-5.6-6.9-4.9-7-4.9c-1.7,0.1-3,0.6-3.9,1.6c-1.8,2-1.7,5.1-1.7,5.1
		C53.9,79.6,53.7,79.9,53.4,79.9L53.4,79.9z"/>
	<path class="st0" d="M51.9,79.9c-0.2,0-0.4-0.1-0.5-0.3c-1.6-3.5,0.9-6.7,1-6.9c1.2-2.4-1.3-4.6-1.3-4.6c-1.1-0.8-2-1-2.8-0.7
		c-2.3,1.1-2.9,7.5-3,9.9c0,0.3-0.2,0.5-0.5,0.5h0c-0.3,0-0.5-0.2-0.5-0.5c0-0.9,0.2-9.2,3.6-10.8c1.1-0.6,2.4-0.3,3.9,0.8
		c1.1,1,2.9,3.4,1.5,6c-0.1,0.1-2.3,2.9-0.9,5.8c0.1,0.3,0,0.6-0.3,0.7C52,79.9,52,79.9,51.9,79.9"/>
	<path class="st0" d="M45.5,66c-0.1,0-0.1,0-0.2,0c-0.6-0.1-1.1-0.5-1.7-1.4c-1.6-1.7-3.4-3.3-3.9-3.3h0c-0.3,0.1-0.6,0-0.7-0.3
		c-0.1-0.3,0.1-0.6,0.3-0.7c1.2-0.4,3.7,2.1,5.1,3.7c0.6,1,1,1,1,1c2.2-0.8,3.4-1.9,3.5-3.1c0.3-2.3-2.8-5.1-4.1-6
		c-0.2-0.2-0.3-0.5-0.1-0.7c0.2-0.2,0.5-0.3,0.7-0.1c0.2,0.1,5,3.6,4.5,7c-0.2,1.7-1.6,3-4.1,3.9C45.9,65.9,45.7,66,45.5,66"/>
	<path class="st0" d="M41.3,75.6c-0.1,0-0.3,0-0.4-0.1c-0.2-0.2-0.2-0.5,0-0.8c1.9-2.1,2.7-4.1,2.3-5.9c-0.7-3.3-5.1-5.2-5.1-5.2
		c-0.3-0.1-0.4-0.4-0.3-0.7c0.1-0.3,0.4-0.4,0.7-0.3c0.2,0.1,4.9,2.1,5.8,6c0.5,2.2-0.4,4.5-2.6,6.9C41.6,75.6,41.5,75.6,41.3,75.6"
		/>
	<path class="st0" d="M54.7,59.6c-0.6,0-1.1,0.2-1.4,0.6c-0.8,0.8-1,2.4-0.9,2.9c1.5,5.4,6.1,5.8,7.5,5.8c0.2,0,0.3,0,0.4,0
		c3.6-0.1,4.3-0.9,4.5-1.3c0.4-1.6-3.7-4.9-6.8-6.8C56.6,60,55.5,59.6,54.7,59.6 M59.8,69.9c-1.6,0-6.9-0.5-8.6-6.7
		c0-0.2,0-2.5,1.2-3.8c1.3-1.3,3.3-1.2,5.9,0.4c1.4,0.8,8,5.1,7.3,8c-0.4,1.3-2.1,2-5.4,2.1C60.3,69.9,60.1,69.9,59.8,69.9"/>
	<path class="st0" d="M83.3,72.3C83.3,72.3,83.2,72.3,83.3,72.3c-0.4,0-0.6-0.3-0.5-0.6c0,0,0.5-3.3-1.9-5.5c-0.2-0.2-0.2-0.5,0-0.8
		c0.2-0.2,0.5-0.2,0.8,0c2.8,2.6,2.2,6.3,2.2,6.5C83.8,72.1,83.5,72.3,83.3,72.3"/>
	<path class="st0" d="M77.1,75.9c-0.3,0-0.5-0.2-0.5-0.5c-0.4-5.6,1.8-8,1.9-8.1c0.2-0.2,0.5-0.2,0.8,0c0.2,0.2,0.2,0.5,0,0.8
		c0,0-2,2.3-1.6,7.3C77.6,75.7,77.4,75.9,77.1,75.9L77.1,75.9z"/>
	<path class="st0" d="M45,91.1c-0.1,0-0.2,0-0.3-0.1c-0.2-0.2-0.3-0.5-0.1-0.8c1.8-2.3,3.5-5.7,3.5-5.7c0.1-0.2,0.3-0.3,0.6-0.3
		c4.7,1.1,7.6,1,7.7,1c0.3,0,0.5,0.2,0.5,0.5c0,0.3-0.2,0.5-0.5,0.5c-0.1,0-2.9,0.1-7.5-1c-0.5,1-1.9,3.6-3.4,5.5
		C45.3,91.1,45.2,91.1,45,91.1"/>
	<path class="st0" d="M46.2,89.4L46.2,89.4c-6.6-0.3-10.9-2.9-11.1-3c-0.3-0.2-0.3-0.5-0.2-0.7c0.2-0.3,0.5-0.3,0.7-0.2
		c0,0,4.3,2.6,10.5,2.9c0.3,0,0.5,0.3,0.5,0.6C46.7,89.2,46.5,89.4,46.2,89.4"/>
	<path class="st0" d="M50.4,89.3c-0.1,0-0.1,0-0.2,0c-1.8-0.7-3.3-0.5-3.3-0.5c-0.3,0-0.6-0.2-0.6-0.5c0-0.3,0.2-0.6,0.5-0.6
		c0.1,0,1.7-0.2,3.7,0.5c0.6-0.2,2.8-0.6,5.1,0c0.3,0.1,0.5,0.4,0.4,0.7c-0.1,0.3-0.4,0.5-0.7,0.4c-2.3-0.6-4.7,0-4.7,0
		C50.5,89.3,50.5,89.3,50.4,89.3"/>
	<path class="st0" d="M74.6,89.5c-0.3,0-0.5-0.2-0.5-0.5c0-0.3,0.2-0.5,0.5-0.5c6.9-0.1,9.4-2,9.8-2.4c0.2-0.2,0.6-0.2,0.8,0
		c0.2,0.2,0.2,0.6,0,0.8C84.5,87.5,81.7,89.4,74.6,89.5L74.6,89.5z"/>
	<path class="st0" d="M69.6,90.3c-0.1,0-0.1,0-0.2,0c-3.7-1.2-5.6-0.7-5.7-0.7c-0.3,0.1-0.6-0.1-0.7-0.4c-0.1-0.3,0.1-0.6,0.4-0.7
		c0.1,0,2.2-0.6,6.1,0.6c0.7-0.2,3.3-0.9,5-0.6c0.3,0.1,0.5,0.3,0.4,0.6c-0.1,0.3-0.3,0.5-0.6,0.4c-1.7-0.3-4.6,0.6-4.6,0.6
		C69.7,90.2,69.6,90.3,69.6,90.3"/>
</g>
</svg>
